<svg width="125" height="30" viewBox="0 0 125 30" fill="none" xmlns="http://www.w3.org/2000/svg">
<rect y="3" width="125" height="27" rx="5" fill="white"/>
<path d="M42.208 22.0264C41.5693 22.0264 41.25 21.9121 41.25 21.6836C41.25 21.6191 41.2705 21.5254 41.3115 21.4023L44.7568 11.3564C44.8389 11.1338 45.1348 11.0225 45.6445 11.0225H46.4531C46.9629 11.0225 47.2588 11.1338 47.3408 11.3564L50.7861 21.4023C50.8154 21.5195 50.8301 21.6133 50.8301 21.6836C50.8301 21.8008 50.7656 21.8887 50.6367 21.9473C50.5137 22 50.3174 22.0264 50.0479 22.0264H49.3623C49.1162 22.0264 48.917 22.0029 48.7646 21.9561C48.6182 21.9033 48.5273 21.8184 48.4922 21.7012L47.8594 19.7939H44.1768L43.5439 21.7012C43.4795 21.918 43.2393 22.0264 42.8232 22.0264H42.208ZM47.1914 17.7285L46.3037 14.9512C46.251 14.8105 46.2041 14.6494 46.1631 14.4678C46.1279 14.2861 46.0957 14.1133 46.0664 13.9492H46.0049L45.9697 14.1426C45.9111 14.4883 45.8438 14.7578 45.7676 14.9512L44.8447 17.7285H47.1914ZM52.8691 25.2256C52.5469 25.2256 52.3096 25.1816 52.1572 25.0938C52.0049 25.0117 51.9287 24.8857 51.9287 24.7158V16.5771C51.9287 16.1084 51.9141 15.7422 51.8848 15.4785C51.8613 15.209 51.8291 14.9512 51.7881 14.7051C51.7588 14.5469 51.7441 14.4355 51.7441 14.3711C51.7441 14.2539 51.8525 14.1602 52.0693 14.0898C52.2861 14.0137 52.5322 13.958 52.8076 13.9229C53.0889 13.8877 53.3145 13.8701 53.4844 13.8701C53.6719 13.8701 53.8008 13.9404 53.8711 14.0811C53.9473 14.2158 54.0146 14.4121 54.0732 14.6699L54.1172 14.8721C54.2988 14.5264 54.5742 14.2451 54.9434 14.0283C55.3184 13.8115 55.7402 13.7031 56.209 13.7031C56.7773 13.7031 57.2812 13.8672 57.7207 14.1953C58.1602 14.5234 58.5029 15.0068 58.749 15.6455C59.001 16.2783 59.127 17.0371 59.127 17.9219C59.127 18.7715 58.998 19.5127 58.7402 20.1455C58.4824 20.7783 58.1074 21.2676 57.6152 21.6133C57.123 21.959 56.5312 22.1318 55.8398 22.1318C55.248 22.1318 54.7119 21.9678 54.2314 21.6396V24.7158C54.2314 24.8857 54.1553 25.0117 54.0029 25.0938C53.8564 25.1816 53.6221 25.2256 53.2998 25.2256H52.8691ZM55.3301 20.2949C56.2969 20.2949 56.7803 19.5039 56.7803 17.9219C56.7803 16.3691 56.3613 15.5928 55.5234 15.5928C55.0312 15.5928 54.6006 15.9004 54.2314 16.5156V19.9961C54.5947 20.1953 54.9609 20.2949 55.3301 20.2949ZM61.834 25.2256C61.5117 25.2256 61.2744 25.1816 61.1221 25.0938C60.9697 25.0117 60.8936 24.8857 60.8936 24.7158V16.5771C60.8936 16.1084 60.8789 15.7422 60.8496 15.4785C60.8262 15.209 60.7939 14.9512 60.7529 14.7051C60.7236 14.5469 60.709 14.4355 60.709 14.3711C60.709 14.2539 60.8174 14.1602 61.0342 14.0898C61.251 14.0137 61.4971 13.958 61.7725 13.9229C62.0537 13.8877 62.2793 13.8701 62.4492 13.8701C62.6367 13.8701 62.7656 13.9404 62.8359 14.0811C62.9121 14.2158 62.9795 14.4121 63.0381 14.6699L63.082 14.8721C63.2637 14.5264 63.5391 14.2451 63.9082 14.0283C64.2832 13.8115 64.7051 13.7031 65.1738 13.7031C65.7422 13.7031 66.2461 13.8672 66.6855 14.1953C67.125 14.5234 67.4678 15.0068 67.7139 15.6455C67.9658 16.2783 68.0918 17.0371 68.0918 17.9219C68.0918 18.7715 67.9629 19.5127 67.7051 20.1455C67.4473 20.7783 67.0723 21.2676 66.5801 21.6133C66.0879 21.959 65.4961 22.1318 64.8047 22.1318C64.2129 22.1318 63.6768 21.9678 63.1963 21.6396V24.7158C63.1963 24.8857 63.1201 25.0117 62.9678 25.0938C62.8213 25.1816 62.5869 25.2256 62.2646 25.2256H61.834ZM64.2949 20.2949C65.2617 20.2949 65.7451 19.5039 65.7451 17.9219C65.7451 16.3691 65.3262 15.5928 64.4883 15.5928C63.9961 15.5928 63.5654 15.9004 63.1963 16.5156V19.9961C63.5596 20.1953 63.9258 20.2949 64.2949 20.2949ZM76.5381 22.1318C75.7998 22.1318 75.1494 22.0586 74.5869 21.9121C74.0303 21.7598 73.6025 21.5752 73.3037 21.3584C73.0107 21.1416 72.8643 20.9365 72.8643 20.7432C72.8643 20.5908 72.9199 20.4033 73.0312 20.1807C73.1484 19.958 73.2861 19.7676 73.4443 19.6094C73.6025 19.4453 73.7344 19.3633 73.8398 19.3633C73.9043 19.3633 74.042 19.4189 74.2529 19.5303C74.5693 19.6943 74.8682 19.8262 75.1494 19.9258C75.4365 20.0254 75.7646 20.0752 76.1338 20.0752C76.5439 20.0752 76.8896 19.9961 77.1709 19.8379C77.458 19.6738 77.6016 19.3896 77.6016 18.9854C77.6016 18.751 77.5283 18.5488 77.3818 18.3789C77.2354 18.209 77.0479 18.0654 76.8193 17.9482C76.5908 17.8311 76.2803 17.6934 75.8877 17.5352L75.1934 17.2363C74.7715 17.0312 74.4082 16.8057 74.1035 16.5596C73.8047 16.3135 73.5586 15.9883 73.3652 15.584C73.1777 15.1797 73.084 14.6846 73.084 14.0986C73.084 13.3838 73.2598 12.7891 73.6113 12.3145C73.9629 11.8398 74.4199 11.4912 74.9824 11.2686C75.5449 11.0459 76.1484 10.9346 76.793 10.9346C77.3203 10.9346 77.7979 10.9902 78.2256 11.1016C78.6533 11.207 78.9873 11.3447 79.2275 11.5146C79.4736 11.6846 79.5967 11.8545 79.5967 12.0244C79.5967 12.165 79.5498 12.3467 79.4561 12.5693C79.3682 12.7861 79.2568 12.9766 79.1221 13.1406C78.9873 13.3047 78.8613 13.3867 78.7441 13.3867C78.6914 13.3867 78.5977 13.3574 78.4629 13.2988C78.2461 13.2109 78.0264 13.1406 77.8037 13.0879C77.5869 13.0293 77.3203 13 77.0039 13C76.459 13 76.0811 13.0879 75.8701 13.2637C75.6592 13.4336 75.5537 13.6357 75.5537 13.8701C75.5537 14.1396 75.624 14.3652 75.7646 14.5469C75.9111 14.7285 76.0928 14.8779 76.3096 14.9951C76.5322 15.1123 76.8398 15.2471 77.2324 15.3994C77.8242 15.6514 78.3076 15.8916 78.6826 16.1201C79.0576 16.3428 79.3799 16.665 79.6494 17.0869C79.9248 17.5088 80.0625 18.0479 80.0625 18.7041C80.0625 19.5068 79.8926 20.166 79.5527 20.6816C79.2188 21.1914 78.7852 21.5605 78.252 21.7891C77.7246 22.0176 77.1533 22.1318 76.5381 22.1318ZM83.833 22.1318C83.0889 22.1318 82.5205 21.9238 82.1279 21.5078C81.7412 21.0859 81.5479 20.4473 81.5479 19.5918V15.6543H81.3018C81.1377 15.6543 81.0176 15.5928 80.9414 15.4697C80.8711 15.3467 80.8359 15.1475 80.8359 14.8721V14.6084C80.8359 14.333 80.8711 14.1338 80.9414 14.0107C81.0176 13.8877 81.1377 13.8262 81.3018 13.8262H81.5479L81.75 12.3408C81.7969 12.0127 82.0781 11.8486 82.5938 11.8486H83.0859C83.3555 11.8486 83.5518 11.8896 83.6748 11.9717C83.8037 12.0537 83.8682 12.1768 83.8682 12.3408V13.8262H84.6328C84.7969 13.8262 84.9141 13.8877 84.9844 14.0107C85.0605 14.1338 85.0986 14.333 85.0986 14.6084V14.8721C85.0986 15.1475 85.0605 15.3467 84.9844 15.4697C84.9141 15.5928 84.7969 15.6543 84.6328 15.6543H83.8682V19.6182C83.8682 19.8584 83.9092 20.0312 83.9912 20.1367C84.0791 20.2422 84.2227 20.2949 84.4219 20.2949C84.4805 20.2949 84.5596 20.2861 84.6592 20.2686C84.7588 20.2451 84.8203 20.2334 84.8438 20.2334C84.9375 20.2334 85.0195 20.3125 85.0898 20.4707C85.166 20.623 85.2246 20.793 85.2656 20.9805C85.3125 21.168 85.3359 21.2939 85.3359 21.3584C85.3359 21.874 84.835 22.1318 83.833 22.1318ZM90.1611 22.1318C88.9248 22.1318 87.9814 21.7686 87.3311 21.042C86.6865 20.3154 86.3643 19.2695 86.3643 17.9043C86.3643 16.5449 86.6865 15.5049 87.3311 14.7842C87.9814 14.0635 88.9248 13.7031 90.1611 13.7031C91.3975 13.7031 92.335 14.0635 92.9736 14.7842C93.6182 15.499 93.9404 16.5391 93.9404 17.9043C93.9404 19.2695 93.6182 20.3154 92.9736 21.042C92.335 21.7686 91.3975 22.1318 90.1611 22.1318ZM90.1611 20.2949C90.6533 20.2949 91.0137 20.0957 91.2422 19.6973C91.4766 19.2988 91.5938 18.7012 91.5938 17.9043C91.5938 17.1133 91.4766 16.5186 91.2422 16.1201C91.0137 15.7217 90.6533 15.5225 90.1611 15.5225C89.1885 15.5225 88.7021 16.3164 88.7021 17.9043C88.7021 18.6953 88.8193 19.293 89.0537 19.6973C89.2939 20.0957 89.6631 20.2949 90.1611 20.2949ZM96.5068 22.0264C95.8857 22.0264 95.5752 21.8623 95.5752 21.5342V16.5771C95.5752 15.8271 95.5254 15.2031 95.4258 14.7051C95.3965 14.5469 95.3818 14.4355 95.3818 14.3711C95.3818 14.2539 95.4902 14.1602 95.707 14.0898C95.9297 14.0137 96.1787 13.958 96.4541 13.9229C96.7354 13.8877 96.9609 13.8701 97.1309 13.8701C97.3125 13.8701 97.4385 13.9375 97.5088 14.0723C97.585 14.207 97.6523 14.4033 97.7109 14.6611L97.7637 14.8896C97.9629 14.5264 98.1914 14.2393 98.4492 14.0283C98.7129 13.8115 99.0498 13.7031 99.46 13.7031C99.7998 13.7031 100.034 13.791 100.163 13.9668C100.292 14.1367 100.356 14.3301 100.356 14.5469C100.356 14.6641 100.336 14.8311 100.295 15.0479C100.254 15.2588 100.195 15.4463 100.119 15.6104C100.043 15.7744 99.958 15.8564 99.8643 15.8564C99.7998 15.8564 99.7031 15.8389 99.5742 15.8037C99.3984 15.7568 99.249 15.7334 99.126 15.7334C98.8389 15.7334 98.5869 15.8154 98.3701 15.9795C98.1592 16.1377 97.998 16.3164 97.8867 16.5156V21.5342C97.8867 21.8623 97.5703 22.0264 96.9375 22.0264H96.5068ZM105.05 22.1318C103.679 22.1318 102.656 21.7656 101.982 21.0332C101.309 20.2949 100.972 19.2725 100.972 17.9658C100.972 16.4951 101.309 15.417 101.982 14.7314C102.656 14.0459 103.585 13.7031 104.769 13.7031C105.554 13.7031 106.195 13.8818 106.693 14.2393C107.197 14.5967 107.563 15.0771 107.792 15.6807C108.026 16.2842 108.144 16.9668 108.144 17.7285C108.144 17.8164 108.091 17.9336 107.985 18.0801C107.886 18.2266 107.771 18.3584 107.643 18.4756C107.514 18.5928 107.414 18.6514 107.344 18.6514H103.362C103.415 19.249 103.591 19.6738 103.89 19.9258C104.194 20.1719 104.616 20.2949 105.155 20.2949C105.448 20.2949 105.712 20.2627 105.946 20.1982C106.187 20.1279 106.441 20.0371 106.711 19.9258C106.875 19.8496 106.986 19.8115 107.045 19.8115C107.15 19.8115 107.265 19.8877 107.388 20.04C107.517 20.1865 107.625 20.3564 107.713 20.5498C107.807 20.7432 107.854 20.8926 107.854 20.998C107.854 21.2383 107.689 21.4434 107.361 21.6133C107.039 21.7832 106.655 21.9121 106.21 22C105.771 22.0879 105.384 22.1318 105.05 22.1318ZM105.894 17.1133C105.894 16.6328 105.8 16.249 105.612 15.9619C105.425 15.6689 105.144 15.5225 104.769 15.5225C103.995 15.5225 103.526 16.0527 103.362 17.1133H105.894Z" fill="#25253C"/>
<path d="M15.6067 18.19L20.1892 9.91224C20.2522 9.79824 20.3152 9.68574 20.3722 9.56799C20.4239 9.46149 20.4674 9.35424 20.4959 9.23799C20.5559 8.99349 20.5394 8.73849 20.4464 8.50524C20.3556 8.27576 20.1923 8.0822 19.9814 7.95399C19.7742 7.8283 19.5302 7.77722 19.2899 7.80924C19.0499 7.84149 18.8302 7.95474 18.6569 8.13174C18.5744 8.21424 18.5069 8.30799 18.4447 8.40774C18.3757 8.51724 18.3134 8.63124 18.2504 8.74524L17.9609 9.26799L17.6707 8.74449C17.6077 8.63124 17.5454 8.51724 17.4764 8.40774C17.4158 8.30815 17.3446 8.21537 17.2642 8.13099C17.0952 7.95589 16.8722 7.84259 16.6312 7.80924C16.3912 7.77746 16.1475 7.82852 15.9404 7.95399C15.7296 8.08225 15.5663 8.27579 15.4754 8.50524C15.382 8.73816 15.3647 8.99463 15.4259 9.23799C15.4544 9.35424 15.4979 9.46149 15.5489 9.56799C15.6059 9.68574 15.6689 9.79824 15.7319 9.91224L16.6679 11.6027L13.0214 18.1892H10.5217C10.3964 18.1892 10.2704 18.1892 10.1452 18.1967C10.0312 18.2035 9.92017 18.2177 9.80917 18.25C9.57667 18.3175 9.37267 18.46 9.22567 18.661C9.07882 18.8633 8.99968 19.1069 8.99954 19.3569C8.99941 19.6069 9.07829 19.8505 9.22492 20.053C9.37267 20.254 9.57592 20.3957 9.80917 20.464C9.92017 20.4962 10.0312 20.5105 10.1452 20.5172C10.2704 20.5247 10.3964 20.5247 10.5224 20.5247H20.3452C20.3752 20.4592 20.4003 20.3915 20.4202 20.3222C20.7314 19.2602 19.9582 18.1892 18.8939 18.1892L15.6067 18.19ZM11.3347 20.9065L10.7407 22.0315C10.6792 22.1485 10.6169 22.264 10.5614 22.3847C10.51 22.4934 10.4698 22.607 10.4414 22.7237C10.3812 22.9736 10.398 23.2358 10.4894 23.476C10.5802 23.7145 10.7399 23.9132 10.9447 24.0422C11.1487 24.1712 11.3864 24.2237 11.6204 24.19C11.8559 24.157 12.0704 24.0415 12.2399 23.86C12.3209 23.7737 12.3869 23.6785 12.4484 23.5765C12.5159 23.464 12.5767 23.347 12.6382 23.23L13.4999 21.598C13.4324 21.4855 12.7897 20.4955 11.3347 20.9065ZM26.7742 18.652C26.6295 18.4562 26.424 18.3138 26.1899 18.247C26.0803 18.2168 25.9676 18.1989 25.8539 18.1937C25.7279 18.1862 25.6027 18.1862 25.4767 18.1862H22.9859L19.6934 12.325C19.2614 12.7785 18.9797 13.3541 18.8864 13.9735C18.7658 14.7482 18.9101 15.5409 19.2959 16.2235L23.2514 23.2682C23.3144 23.3807 23.3767 23.4932 23.4457 23.6012C23.5087 23.6987 23.5762 23.791 23.6579 23.8742C23.8312 24.0482 24.0509 24.1592 24.2917 24.1915C24.5317 24.223 24.7739 24.1735 24.9832 24.049C25.1936 23.9231 25.3572 23.7319 25.4489 23.5045C25.5427 23.2742 25.5584 23.023 25.4984 22.7815C25.4689 22.6689 25.4274 22.5598 25.3747 22.456C25.3184 22.3397 25.2547 22.2287 25.1917 22.1162L24.2797 20.4917H25.4767C25.6027 20.4917 25.7279 20.4917 25.8539 20.485C25.9679 20.4782 26.0789 20.464 26.1899 20.4325C26.4244 20.3657 26.6302 20.223 26.7749 20.0267C26.9216 19.8277 27.0004 19.5869 26.9999 19.3397C27.0004 19.0926 26.9216 18.8517 26.7749 18.6527L26.7742 18.652Z" fill="black"/>
</svg>
