<svg width="20" height="20" viewBox="0 0 20 20" fill="none" xmlns="http://www.w3.org/2000/svg">
<path d="M12.5 5H11.25C11.25 4.1712 10.9208 3.37634 10.3347 2.79029C9.74866 2.20424 8.9538 1.875 8.125 1.875C7.2962 1.875 6.50134 2.20424 5.91529 2.79029C5.32924 3.37634 5 4.1712 5 5H3.75C3.75 3.83968 4.21094 2.72688 5.03141 1.90641C5.85188 1.08594 6.96468 0.625 8.125 0.625C9.28532 0.625 10.3981 1.08594 11.2186 1.90641C12.0391 2.72688 12.5 3.83968 12.5 5Z" fill="#003D79"/>
<path d="M15.625 9.375C15.3021 9.37616 14.9852 9.46239 14.7063 9.625C14.5378 9.35774 14.3044 9.13739 14.028 8.98442C13.7516 8.83145 13.4409 8.75081 13.125 8.75C12.8021 8.75116 12.4852 8.83739 12.2063 9C11.9789 8.64221 11.6369 8.37203 11.2363 8.23355C10.8356 8.09507 10.3998 8.09646 10 8.2375V5C10 4.50272 9.80246 4.02581 9.45083 3.67417C9.0992 3.32254 8.62229 3.125 8.125 3.125C7.62772 3.125 7.15081 3.32254 6.79918 3.67417C6.44755 4.02581 6.25001 4.50272 6.25001 5V11.9375L4.85626 10.9875C4.53675 10.7496 4.14837 10.6223 3.75001 10.625C3.37812 10.6241 3.01435 10.7338 2.70497 10.9401C2.39558 11.1465 2.15455 11.4402 2.01252 11.7839C1.87048 12.1276 1.83386 12.5057 1.90731 12.8703C1.98076 13.2349 2.16096 13.5694 2.42501 13.8312L7.425 18.3938C8.13288 19.0273 9.05001 19.3768 10 19.375H13.125C14.2853 19.375 15.3981 18.9141 16.2186 18.0936C17.0391 17.2731 17.5 16.1603 17.5 15V11.25C17.5 10.7527 17.3025 10.2758 16.9508 9.92417C16.5992 9.57254 16.1223 9.375 15.625 9.375ZM16.25 15C16.25 15.8288 15.9208 16.6237 15.3347 17.2097C14.7487 17.7958 13.9538 18.125 13.125 18.125H10C9.36826 18.1326 8.75524 17.9105 8.275 17.5L3.30625 12.9375C3.19079 12.8211 3.1257 12.664 3.12501 12.5C3.12501 12.3839 3.15733 12.2702 3.21835 12.1714C3.27937 12.0727 3.36668 11.9929 3.4705 11.941C3.57431 11.8891 3.69053 11.8671 3.80613 11.8775C3.92173 11.8879 4.03215 11.9304 4.12501 12L7.5 14.3125V5C7.5 4.83424 7.56585 4.67527 7.68306 4.55806C7.80027 4.44085 7.95924 4.375 8.125 4.375C8.29077 4.375 8.44974 4.44085 8.56695 4.55806C8.68416 4.67527 8.75 4.83424 8.75 5V11.875H10V10C10 9.83424 10.0659 9.67527 10.1831 9.55806C10.3003 9.44085 10.4592 9.375 10.625 9.375C10.7908 9.375 10.9497 9.44085 11.0669 9.55806C11.1842 9.67527 11.25 9.83424 11.25 10V11.875H12.5V10.625C12.5 10.4592 12.5659 10.3003 12.6831 10.1831C12.8003 10.0658 12.9592 10 13.125 10C13.2908 10 13.4497 10.0658 13.5669 10.1831C13.6842 10.3003 13.75 10.4592 13.75 10.625V11.875H15V11.25C15 11.0842 15.0659 10.9253 15.1831 10.8081C15.3003 10.6908 15.4592 10.625 15.625 10.625C15.7908 10.625 15.9497 10.6908 16.0669 10.8081C16.1842 10.9253 16.25 11.0842 16.25 11.25V15Z" fill="#003D79"/>
</svg>
