<svg width="123" height="29" viewBox="0 0 123 29" fill="none" xmlns="http://www.w3.org/2000/svg">
<rect y="2" width="123" height="27" rx="5" fill="white"/>
<path d="M42.0977 21.0264C41.4707 21.0264 41.1572 20.8623 41.1572 20.5342V10.6816C41.1572 10.4648 41.207 10.3096 41.3066 10.2158C41.4062 10.1162 41.5645 10.0664 41.7812 10.0664H45.0684C46.041 10.0664 46.9023 10.3037 47.6523 10.7783C48.4023 11.2529 48.7773 12.1553 48.7773 13.4854C48.7773 14.3994 48.5605 15.1113 48.127 15.6211C47.6934 16.125 47.2041 16.4648 46.6592 16.6406C46.1201 16.8164 45.6396 16.9043 45.2178 16.9043H43.5654V20.5342C43.5654 20.8623 43.252 21.0264 42.625 21.0264H42.0977ZM44.9541 14.8389C45.3291 14.8389 45.6484 14.7393 45.9121 14.54C46.1816 14.3408 46.3164 13.9893 46.3164 13.4854C46.3164 12.9756 46.1816 12.6182 45.9121 12.4131C45.6426 12.208 45.3232 12.1055 44.9541 12.1055H43.5654V14.8389H44.9541ZM52.2578 21.1318C51.5137 21.1318 50.9453 20.9238 50.5527 20.5078C50.166 20.0859 49.9727 19.4473 49.9727 18.5918V9.72363C49.9727 9.38379 50.2861 9.21387 50.9131 9.21387H51.3525C51.6748 9.21387 51.9092 9.25781 52.0557 9.3457C52.208 9.42773 52.2842 9.55371 52.2842 9.72363V18.6182C52.2842 18.8584 52.3281 19.0312 52.416 19.1367C52.5039 19.2422 52.6504 19.2949 52.8555 19.2949C52.9082 19.2949 52.9873 19.2832 53.0928 19.2598C53.1221 19.2539 53.1514 19.248 53.1807 19.2422C53.21 19.2363 53.2422 19.2334 53.2773 19.2334C53.3652 19.2334 53.4443 19.3125 53.5146 19.4707C53.5908 19.623 53.6494 19.7959 53.6904 19.9893C53.7314 20.1768 53.752 20.2998 53.752 20.3584C53.752 20.874 53.2539 21.1318 52.2578 21.1318ZM56.6172 21.1318C55.8203 21.1318 55.2344 20.9238 54.8594 20.5078C54.4902 20.0859 54.3057 19.5293 54.3057 18.8379C54.3057 18.3164 54.4141 17.8477 54.6309 17.4316C54.8477 17.0098 55.2871 16.6553 55.9492 16.3682C56.6113 16.0811 57.5576 15.9375 58.7881 15.9375V15.4189C58.7881 15.1143 58.6914 14.8887 58.498 14.7422C58.3047 14.5957 57.9971 14.5225 57.5752 14.5225C57.2236 14.5225 56.9219 14.5605 56.6699 14.6367C56.418 14.707 56.1455 14.8037 55.8525 14.9268C55.7002 14.9971 55.6064 15.0322 55.5713 15.0322C55.4658 15.0322 55.3486 14.9531 55.2197 14.7949C55.0967 14.6367 54.9883 14.4551 54.8945 14.25C54.8008 14.0449 54.7539 13.8896 54.7539 13.7842C54.7539 13.6025 54.8828 13.4297 55.1406 13.2656C55.4043 13.0957 55.7646 12.9609 56.2217 12.8613C56.6787 12.7559 57.1855 12.7031 57.7422 12.7031C58.9141 12.7031 59.7666 12.9375 60.2998 13.4062C60.833 13.8691 61.0996 14.5049 61.0996 15.3135V18.2402C61.0996 18.7266 61.1113 19.1045 61.1348 19.374C61.1641 19.6436 61.2021 19.9102 61.249 20.1738C61.2783 20.332 61.293 20.4434 61.293 20.5078C61.293 20.625 61.1816 20.7217 60.959 20.7979C60.7422 20.874 60.4932 20.9297 60.2119 20.9648C59.9307 21 59.7051 21.0176 59.5352 21.0176C59.3535 21.0176 59.2217 20.9414 59.1396 20.7891C59.0635 20.6309 59.002 20.417 58.9551 20.1475C58.9492 20.1123 58.9434 20.0771 58.9375 20.042C58.9316 20.0068 58.9229 19.9717 58.9111 19.9365C58.8525 20.0479 58.7266 20.1973 58.5332 20.3848C58.3457 20.5723 58.0879 20.7451 57.7598 20.9033C57.4316 21.0557 57.0508 21.1318 56.6172 21.1318ZM57.3818 19.2949C57.6748 19.2949 57.9502 19.2041 58.208 19.0225C58.4658 18.835 58.6592 18.5977 58.7881 18.3105V17.4492C57.3291 17.4492 56.5996 17.833 56.5996 18.6006C56.5996 18.8057 56.667 18.9727 56.8018 19.1016C56.9424 19.2305 57.1357 19.2949 57.3818 19.2949ZM64.8613 24.2256C64.2344 24.2256 63.9209 24.1143 63.9209 23.8916C63.9209 23.8037 63.9414 23.71 63.9824 23.6104L64.9756 21L62.3916 13.4238C62.3857 13.3887 62.374 13.3418 62.3564 13.2832C62.3389 13.2188 62.3301 13.1719 62.3301 13.1426C62.3301 13.0254 62.4062 12.9404 62.5586 12.8877C62.7109 12.8291 62.9512 12.7998 63.2793 12.7998H63.7891C64.0352 12.7998 64.2314 12.8262 64.3779 12.8789C64.5303 12.9258 64.624 13.0078 64.6592 13.125L65.5732 16.0078C65.6318 16.1895 65.7051 16.4824 65.793 16.8867C65.8809 17.2852 65.9336 17.5225 65.9512 17.5986L66.0127 17.8975H66.083C66.0889 17.8564 66.1035 17.7949 66.127 17.7129C66.3203 16.7754 66.4521 16.207 66.5225 16.0078L67.4365 13.125C67.4775 13.002 67.5713 12.917 67.7178 12.8701C67.8701 12.8232 68.0693 12.7998 68.3154 12.7998H68.6934C69.0156 12.7998 69.25 12.8291 69.3965 12.8877C69.5488 12.9404 69.625 13.0254 69.625 13.1426C69.625 13.2012 69.6104 13.2949 69.5811 13.4238L65.9951 23.8916C65.9189 24.1143 65.6289 24.2256 65.125 24.2256H64.8613ZM73.7119 21.1318C72.9736 21.1318 72.3232 21.0586 71.7607 20.9121C71.2041 20.7598 70.7764 20.5752 70.4775 20.3584C70.1846 20.1416 70.0381 19.9365 70.0381 19.7432C70.0381 19.5908 70.0938 19.4033 70.2051 19.1807C70.3223 18.958 70.46 18.7676 70.6182 18.6094C70.7764 18.4453 70.9082 18.3633 71.0137 18.3633C71.0781 18.3633 71.2158 18.4189 71.4268 18.5303C71.7432 18.6943 72.042 18.8262 72.3232 18.9258C72.6104 19.0254 72.9385 19.0752 73.3076 19.0752C73.7178 19.0752 74.0635 18.9961 74.3447 18.8379C74.6318 18.6738 74.7754 18.3896 74.7754 17.9854C74.7754 17.751 74.7021 17.5488 74.5557 17.3789C74.4092 17.209 74.2217 17.0654 73.9932 16.9482C73.7646 16.8311 73.4541 16.6934 73.0615 16.5352L72.3672 16.2363C71.9453 16.0312 71.582 15.8057 71.2773 15.5596C70.9785 15.3135 70.7324 14.9883 70.5391 14.584C70.3516 14.1797 70.2578 13.6846 70.2578 13.0986C70.2578 12.3838 70.4336 11.7891 70.7852 11.3145C71.1367 10.8398 71.5938 10.4912 72.1562 10.2686C72.7188 10.0459 73.3223 9.93457 73.9668 9.93457C74.4941 9.93457 74.9717 9.99023 75.3994 10.1016C75.8271 10.207 76.1611 10.3447 76.4014 10.5146C76.6475 10.6846 76.7705 10.8545 76.7705 11.0244C76.7705 11.165 76.7236 11.3467 76.6299 11.5693C76.542 11.7861 76.4307 11.9766 76.2959 12.1406C76.1611 12.3047 76.0352 12.3867 75.918 12.3867C75.8652 12.3867 75.7715 12.3574 75.6367 12.2988C75.4199 12.2109 75.2002 12.1406 74.9775 12.0879C74.7607 12.0293 74.4941 12 74.1777 12C73.6328 12 73.2549 12.0879 73.0439 12.2637C72.833 12.4336 72.7275 12.6357 72.7275 12.8701C72.7275 13.1396 72.7979 13.3652 72.9385 13.5469C73.085 13.7285 73.2666 13.8779 73.4834 13.9951C73.7061 14.1123 74.0137 14.2471 74.4062 14.3994C74.998 14.6514 75.4814 14.8916 75.8564 15.1201C76.2314 15.3428 76.5537 15.665 76.8232 16.0869C77.0986 16.5088 77.2363 17.0479 77.2363 17.7041C77.2363 18.5068 77.0664 19.166 76.7266 19.6816C76.3926 20.1914 75.959 20.5605 75.4258 20.7891C74.8984 21.0176 74.3271 21.1318 73.7119 21.1318ZM81.0068 21.1318C80.2627 21.1318 79.6943 20.9238 79.3018 20.5078C78.915 20.0859 78.7217 19.4473 78.7217 18.5918V14.6543H78.4756C78.3115 14.6543 78.1914 14.5928 78.1152 14.4697C78.0449 14.3467 78.0098 14.1475 78.0098 13.8721V13.6084C78.0098 13.333 78.0449 13.1338 78.1152 13.0107C78.1914 12.8877 78.3115 12.8262 78.4756 12.8262H78.7217L78.9238 11.3408C78.9707 11.0127 79.252 10.8486 79.7676 10.8486H80.2598C80.5293 10.8486 80.7256 10.8896 80.8486 10.9717C80.9775 11.0537 81.042 11.1768 81.042 11.3408V12.8262H81.8066C81.9707 12.8262 82.0879 12.8877 82.1582 13.0107C82.2344 13.1338 82.2725 13.333 82.2725 13.6084V13.8721C82.2725 14.1475 82.2344 14.3467 82.1582 14.4697C82.0879 14.5928 81.9707 14.6543 81.8066 14.6543H81.042V18.6182C81.042 18.8584 81.083 19.0312 81.165 19.1367C81.2529 19.2422 81.3965 19.2949 81.5957 19.2949C81.6543 19.2949 81.7334 19.2861 81.833 19.2686C81.9326 19.2451 81.9941 19.2334 82.0176 19.2334C82.1113 19.2334 82.1934 19.3125 82.2637 19.4707C82.3398 19.623 82.3984 19.793 82.4395 19.9805C82.4863 20.168 82.5098 20.2939 82.5098 20.3584C82.5098 20.874 82.0088 21.1318 81.0068 21.1318ZM87.335 21.1318C86.0986 21.1318 85.1553 20.7686 84.5049 20.042C83.8604 19.3154 83.5381 18.2695 83.5381 16.9043C83.5381 15.5449 83.8604 14.5049 84.5049 13.7842C85.1553 13.0635 86.0986 12.7031 87.335 12.7031C88.5713 12.7031 89.5088 13.0635 90.1475 13.7842C90.792 14.499 91.1143 15.5391 91.1143 16.9043C91.1143 18.2695 90.792 19.3154 90.1475 20.042C89.5088 20.7686 88.5713 21.1318 87.335 21.1318ZM87.335 19.2949C87.8271 19.2949 88.1875 19.0957 88.416 18.6973C88.6504 18.2988 88.7676 17.7012 88.7676 16.9043C88.7676 16.1133 88.6504 15.5186 88.416 15.1201C88.1875 14.7217 87.8271 14.5225 87.335 14.5225C86.3623 14.5225 85.876 15.3164 85.876 16.9043C85.876 17.6953 85.9932 18.293 86.2275 18.6973C86.4678 19.0957 86.8369 19.2949 87.335 19.2949ZM93.6807 21.0264C93.0596 21.0264 92.749 20.8623 92.749 20.5342V15.5771C92.749 14.8271 92.6992 14.2031 92.5996 13.7051C92.5703 13.5469 92.5557 13.4355 92.5557 13.3711C92.5557 13.2539 92.6641 13.1602 92.8809 13.0898C93.1035 13.0137 93.3525 12.958 93.6279 12.9229C93.9092 12.8877 94.1348 12.8701 94.3047 12.8701C94.4863 12.8701 94.6123 12.9375 94.6826 13.0723C94.7588 13.207 94.8262 13.4033 94.8848 13.6611L94.9375 13.8896C95.1367 13.5264 95.3652 13.2393 95.623 13.0283C95.8867 12.8115 96.2236 12.7031 96.6338 12.7031C96.9736 12.7031 97.208 12.791 97.3369 12.9668C97.4658 13.1367 97.5303 13.3301 97.5303 13.5469C97.5303 13.6641 97.5098 13.8311 97.4688 14.0479C97.4277 14.2588 97.3691 14.4463 97.293 14.6104C97.2168 14.7744 97.1318 14.8564 97.0381 14.8564C96.9736 14.8564 96.877 14.8389 96.748 14.8037C96.5723 14.7568 96.4229 14.7334 96.2998 14.7334C96.0127 14.7334 95.7607 14.8154 95.5439 14.9795C95.333 15.1377 95.1719 15.3164 95.0605 15.5156V20.5342C95.0605 20.8623 94.7441 21.0264 94.1113 21.0264H93.6807ZM102.224 21.1318C100.853 21.1318 99.8301 20.7656 99.1562 20.0332C98.4824 19.2949 98.1455 18.2725 98.1455 16.9658C98.1455 15.4951 98.4824 14.417 99.1562 13.7314C99.8301 13.0459 100.759 12.7031 101.942 12.7031C102.728 12.7031 103.369 12.8818 103.867 13.2393C104.371 13.5967 104.737 14.0771 104.966 14.6807C105.2 15.2842 105.317 15.9668 105.317 16.7285C105.317 16.8164 105.265 16.9336 105.159 17.0801C105.06 17.2266 104.945 17.3584 104.816 17.4756C104.688 17.5928 104.588 17.6514 104.518 17.6514H100.536C100.589 18.249 100.765 18.6738 101.063 18.9258C101.368 19.1719 101.79 19.2949 102.329 19.2949C102.622 19.2949 102.886 19.2627 103.12 19.1982C103.36 19.1279 103.615 19.0371 103.885 18.9258C104.049 18.8496 104.16 18.8115 104.219 18.8115C104.324 18.8115 104.438 18.8877 104.562 19.04C104.69 19.1865 104.799 19.3564 104.887 19.5498C104.98 19.7432 105.027 19.8926 105.027 19.998C105.027 20.2383 104.863 20.4434 104.535 20.6133C104.213 20.7832 103.829 20.9121 103.384 21C102.944 21.0879 102.558 21.1318 102.224 21.1318ZM103.067 16.1133C103.067 15.6328 102.974 15.249 102.786 14.9619C102.599 14.6689 102.317 14.5225 101.942 14.5225C101.169 14.5225 100.7 15.0527 100.536 16.1133H103.067Z" fill="#25253C"/>
<path d="M15.6875 9.09143V22.9078C15.6876 22.9378 15.6965 22.9671 15.7132 22.992C15.7299 23.0169 15.7535 23.0364 15.7812 23.0479C15.8089 23.0594 15.8393 23.0625 15.8687 23.0568C15.8982 23.0511 15.9253 23.0368 15.9466 23.0158L23.1406 16L15.9466 8.9835C15.9253 8.96245 15.8982 8.94818 15.8687 8.94246C15.8393 8.93675 15.8089 8.93985 15.7812 8.95138C15.7535 8.9629 15.7299 8.98234 15.7132 9.00726C15.6965 9.03217 15.6876 9.06145 15.6875 9.09143ZM26.157 13.1172L17.1366 8.14748L17.131 8.14432C16.9756 8.05994 16.828 8.27018 16.9552 8.39252L24.0262 15.1538L26.157 13.1172ZM16.9559 23.6074C16.828 23.7298 16.9756 23.94 17.1317 23.8557L17.1373 23.8525L26.157 18.8828L24.0262 16.8455L16.9559 23.6074ZM29.7985 15.1211L27.2796 13.7338L24.9111 16L27.2796 18.2651L29.7985 16.8789C30.4837 16.5003 30.4837 15.4997 29.7985 15.1211Z" fill="black"/>
</svg>
