<svg width="20" height="20" viewBox="0 0 20 20" fill="none" xmlns="http://www.w3.org/2000/svg">
<path d="M3.33333 16.6666V10.8333H9.16666L6.48583 13.5166C6.94372 13.9849 7.49031 14.3572 8.09367 14.6119C8.69703 14.8665 9.34508 14.9985 9.99999 15C11.0327 14.9984 12.0396 14.6772 12.8824 14.0803C13.7251 13.4834 14.3624 12.6403 14.7067 11.6666H14.7217C14.8167 11.3958 14.8892 11.1166 14.9375 10.8333H16.6142C16.4112 12.4443 15.6272 13.9259 14.4094 14.9999C13.1917 16.0739 11.6237 16.6666 9.99999 16.6666H9.99166C9.11651 16.6692 8.24953 16.4982 7.44091 16.1635C6.63229 15.8288 5.8981 15.337 5.28083 14.7166L3.33333 16.6666ZM5.06166 9.16662H3.38499C3.58789 7.55617 4.37136 6.07508 5.58846 5.00112C6.80555 3.92717 8.37265 3.33415 9.99583 3.33329H9.99999C10.8753 3.33051 11.7424 3.50144 12.5512 3.83617C13.36 4.17089 14.0943 4.66276 14.7117 5.28329L16.6667 3.33329V9.16662H10.8333L13.5183 6.48329C13.06 6.01451 12.5127 5.64188 11.9086 5.38718C11.3045 5.13248 10.6556 5.00083 9.99999 4.99995C8.96728 5.00148 7.96038 5.32274 7.11761 5.9196C6.27484 6.51646 5.63757 7.35963 5.29333 8.33329H5.27833C5.18249 8.60412 5.10999 8.88329 5.06249 9.16662H5.06166Z" fill="#003D79"/>
<path d="M1.75 7.25C1.75 4.25 4.548 1.75 8 1.75C11.75 1.75 14.25 5.25 14.25 5.25V1.75M4.75 10.75H1.75H4.75ZM14.25 8.75C14.25 11.75 11.452 14.25 8 14.25C4.25 14.25 1.75 10.75 1.75 10.75V14.25L14.25 8.75ZM11.25 5.25H14.25H11.25Z" stroke="black" stroke-width="1.5" stroke-linecap="round" stroke-linejoin="round"/>
</svg>
