<svg width="20" height="20" viewBox="0 0 20 20" fill="none" xmlns="http://www.w3.org/2000/svg">
<g clip-path="url(#clip0_485_260)">
<path d="M19.3734 1.21156L19.3541 0.6475L18.7878 0.625938C18.7878 0.625938 18.7572 0.625 18.6987 0.625C17.8747 0.625 13.5644 0.824375 9.63 4.7575C8.57656 5.81 7.65375 6.91344 6.90656 7.99375C4.045 6.835 0.625 10.2525 0.625 10.2525C0.625 10.2525 3.25469 9.15719 5.15281 11.43C5.01281 11.9116 4.95 12.3284 4.94312 12.69L4.42562 13.2078C4.27406 13.3594 4.28625 13.6181 4.43781 13.77L4.5625 13.8944L4.20563 14.2516C4.11844 14.3387 4.09219 14.4719 4.15469 14.5706C3.9025 14.5222 3.5375 14.6894 2.78937 14.9672C1.84344 15.3181 1.66906 16.1162 1.66906 16.1162C1.66906 16.1162 1.97406 16.2659 2.42094 16.3112C1.84969 17.1375 1.98062 18.0138 1.98062 18.0138C1.98062 18.0138 2.8575 18.1444 3.68344 17.5737C3.72875 18.0206 3.87844 18.3253 3.87844 18.3253C3.87844 18.3253 4.6775 18.1506 5.02812 17.2044C5.31 16.445 5.47813 16.0803 5.42219 15.8284C5.525 15.8797 5.66375 15.87 5.74375 15.79L6.10094 15.4325L6.25063 15.5822C6.40281 15.7337 6.63656 15.7216 6.78781 15.5694L7.31281 15.0453C7.69312 15.0375 8.11125 14.9663 8.55906 14.8366C10.8522 16.735 9.75062 19.375 9.75062 19.375C9.75062 19.375 13.1784 15.9484 12.0069 13.085C13.0766 12.3475 14.1788 11.4266 15.2403 10.3659C19.4919 6.11656 19.3806 1.40969 19.3734 1.21156ZM5.00156 16.3947C4.80687 16.9197 4.36437 17.0166 4.36437 17.0166C4.36437 17.0166 4.24969 16.7794 4.25063 16.4563C3.77313 16.8353 3.23406 16.7603 3.23406 16.7603C3.23406 16.7603 3.15937 16.2213 3.53844 15.7438C3.21469 15.7444 2.97781 15.63 2.97781 15.63C2.97781 15.63 3.07469 15.1875 3.59969 14.9928C4.00344 14.8431 4.20406 14.7541 4.34344 14.7741L5.22125 15.6516C5.24094 15.7906 5.15156 15.9913 5.00156 16.3947ZM7.23719 14.4428C7.05228 14.4423 6.86816 14.4188 6.68906 14.3728L5.61406 13.2978C5.19156 11.5634 7.01875 8.22563 10.0591 5.18625C11.7075 3.53844 13.4328 2.57719 14.9094 2.01562L17.9831 5.08937C17.4216 6.565 16.4603 8.28937 14.8116 9.93719C12.0628 12.6847 9.06844 14.4428 7.23719 14.4428Z" fill="#003D79"/>
<path d="M13.2066 5.27502C12.8043 5.27502 12.4185 5.43482 12.1341 5.71926C11.8496 6.0037 11.6898 6.38948 11.6898 6.79174C11.6898 7.194 11.8496 7.57979 12.1341 7.86423C12.4185 8.14867 12.8043 8.30846 13.2066 8.30846C13.6088 8.30838 13.9946 8.14859 14.2791 7.86422C14.5636 7.57984 14.7235 7.19415 14.7237 6.7919C14.7236 6.3896 14.5637 6.00382 14.2792 5.71938C13.9947 5.43494 13.6089 5.27511 13.2066 5.27502ZM13.2066 7.80252C13.0738 7.80257 12.9423 7.77646 12.8197 7.72569C12.697 7.67493 12.5855 7.60049 12.4916 7.50665C12.3977 7.4128 12.3232 7.30138 12.2724 7.17874C12.2215 7.05611 12.1954 6.92466 12.1953 6.7919C12.1953 6.65914 12.2214 6.52768 12.2721 6.40501C12.3229 6.28234 12.3973 6.17087 12.4912 6.07697C12.585 5.98306 12.6965 5.90856 12.8191 5.85772C12.9417 5.80688 13.0732 5.78069 13.2059 5.78065C13.4741 5.78057 13.7312 5.887 13.9209 6.07653C14.1105 6.26605 14.2171 6.52316 14.2172 6.79127C14.2173 7.05939 14.1108 7.31656 13.9213 7.50621C13.7318 7.69585 13.4747 7.80244 13.2066 7.80252ZM10.1722 8.30784C9.76991 8.308 9.38415 8.46786 9.09967 8.75228C8.81518 9.03671 8.65525 9.42243 8.655 9.82471C8.66306 10.2217 8.82641 10.5997 9.11 10.8776C9.39359 11.1555 9.77482 11.3111 10.1719 11.3111C10.5689 11.3111 10.9502 11.1555 11.2337 10.8776C11.5173 10.5997 11.6807 10.2217 11.6887 9.82471C11.6887 9.42249 11.5289 9.03676 11.2445 8.75232C10.9601 8.46788 10.5744 8.308 10.1722 8.30784ZM10.1719 10.8353C10.0376 10.8377 9.90428 10.8133 9.77958 10.7636C9.65488 10.7138 9.54133 10.6397 9.44557 10.5457C9.34981 10.4516 9.27375 10.3393 9.22183 10.2155C9.1699 10.0917 9.14316 9.95881 9.14316 9.82456C9.14316 9.6903 9.1699 9.55739 9.22183 9.43359C9.27375 9.30978 9.34981 9.19755 9.44557 9.10346C9.54133 9.00937 9.65488 8.93529 9.77958 8.88555C9.90428 8.83581 10.0376 8.81141 10.1719 8.81377C10.3047 8.81369 10.4362 8.83979 10.559 8.89058C10.6817 8.94138 10.7932 9.01586 10.8871 9.10978C10.981 9.2037 11.0555 9.31521 11.1063 9.43794C11.1571 9.56067 11.1832 9.6922 11.1831 9.82502C11.1832 9.95779 11.157 10.0893 11.1062 10.2119C11.0554 10.3346 10.9809 10.446 10.887 10.5398C10.793 10.6337 10.6815 10.7081 10.5588 10.7588C10.4361 10.8095 10.3046 10.8355 10.1719 10.8353Z" fill="#003D79"/>
<path d="M14.6578 2.73341C14.7974 2.73341 14.9106 2.62022 14.9106 2.4806C14.9106 2.34097 14.7974 2.22778 14.6578 2.22778C14.5182 2.22778 14.405 2.34097 14.405 2.4806C14.405 2.62022 14.5182 2.73341 14.6578 2.73341Z" fill="#003D79"/>
<path d="M15.3734 3.44787C15.5129 3.44787 15.6259 3.33482 15.6259 3.19537C15.6259 3.05592 15.5129 2.94287 15.3734 2.94287C15.234 2.94287 15.1209 3.05592 15.1209 3.19537C15.1209 3.33482 15.234 3.44787 15.3734 3.44787Z" fill="#003D79"/>
<path d="M16.0888 4.16348C16.2286 4.16348 16.3419 4.05015 16.3419 3.91035C16.3419 3.77055 16.2286 3.65723 16.0888 3.65723C15.949 3.65723 15.8356 3.77055 15.8356 3.91035C15.8356 4.05015 15.949 4.16348 16.0888 4.16348Z" fill="#003D79"/>
<path d="M16.8034 4.87808C16.9432 4.87808 17.0566 4.76475 17.0566 4.62495C17.0566 4.48515 16.9432 4.37183 16.8034 4.37183C16.6637 4.37183 16.5503 4.48515 16.5503 4.62495C16.5503 4.76475 16.6637 4.87808 16.8034 4.87808Z" fill="#003D79"/>
<path d="M17.6981 5.16124C17.6506 5.11387 17.5862 5.08728 17.5191 5.08728C17.4519 5.08728 17.3876 5.11387 17.34 5.16124C17.3164 5.1847 17.2978 5.21258 17.285 5.24328C17.2723 5.27398 17.2657 5.3069 17.2657 5.34014C17.2657 5.37339 17.2723 5.40631 17.285 5.43701C17.2978 5.46771 17.3164 5.49559 17.34 5.51905C17.3876 5.56626 17.452 5.59275 17.5191 5.59275C17.5861 5.59275 17.6505 5.56626 17.6981 5.51905C17.7454 5.4715 17.7719 5.40719 17.7719 5.34014C17.7719 5.2731 17.7454 5.20878 17.6981 5.16124Z" fill="#003D79"/>
</g>
<defs>
<clipPath id="clip0_485_260">
<rect width="20" height="20" fill="white"/>
</clipPath>
</defs>
</svg>
