<svg width="18" height="18" viewBox="0 0 18 18" fill="none" xmlns="http://www.w3.org/2000/svg">
<path d="M16.3125 4.47013C15.7746 4.70216 15.1892 4.86915 14.5863 4.93419C15.2123 4.5623 15.681 3.97477 15.9047 3.28184C15.3173 3.63128 14.6738 3.87631 14.0027 4.00606C13.7222 3.70623 13.383 3.46736 13.0062 3.30436C12.6294 3.14135 12.223 3.05769 11.8125 3.0586C10.1513 3.0586 8.81541 4.40509 8.81541 6.05743C8.81541 6.28946 8.84354 6.52149 8.88924 6.74474C6.40194 6.61466 4.18358 5.42638 2.70878 3.60704C2.44005 4.06603 2.29923 4.58865 2.30096 5.12052C2.30096 6.16114 2.83006 7.07872 3.6369 7.61837C3.16142 7.59964 2.69707 7.46895 2.28163 7.23693V7.27384C2.28163 8.73107 3.3117 9.93869 4.68456 10.2164C4.42679 10.2834 4.16162 10.3176 3.8953 10.3184C3.70018 10.3184 3.51561 10.299 3.32928 10.2727C3.70897 11.461 4.81463 12.324 6.13123 12.3522C5.10116 13.159 3.81092 13.6336 2.40995 13.6336C2.15858 13.6336 1.92655 13.6248 1.68573 13.5967C3.01463 14.4492 4.59139 14.9414 6.28944 14.9414C11.8019 14.9414 14.8183 10.3746 14.8183 6.41075C14.8183 6.28067 14.8183 6.1506 14.8095 6.02052C15.3931 5.59337 15.9047 5.06427 16.3125 4.47013Z" fill="white"/>
</svg>
